<!-- icon666.com - MILLIONS OF FREE VECTOR ICONS --><svg viewBox="0 0 448 448" xmlns="http://www.w3.org/2000/svg"><path d="m448 200h-28.320312c-3.597657 0-6.753907-2.402344-7.710938-5.871094-2.457031-8.84375-5.992188-17.351562-10.527344-25.328125-1.777344-3.125-1.25-7.054687 1.285156-9.601562l20.050782-20.101563-33.90625-33.90625-20.070313 20.074219c-2.546875 2.539063-6.472656 3.070313-9.601562 1.292969-7.972657-4.546875-16.476563-8.09375-25.320313-10.558594-3.460937-.949219-5.863281-4.089844-5.878906-7.679688v-28.320312h-48v28.320312c0 3.601563-2.40625 6.757813-5.878906 7.710938-8.839844 2.457031-17.34375 5.992188-25.320313 10.527344-3.128906 1.777344-7.054687 1.246094-9.601562-1.292969l-20.101563-20.042969-33.90625 33.90625 20.082032 20.070313c2.535156 2.546875 3.0625 6.476562 1.285156 9.601562-4.546875 7.976563-8.09375 16.484375-10.558594 25.328125-.953125 3.457032-4.09375 5.855469-7.679688 5.871094h-28.320312v48h28.320312c3.597657 0 6.753907 2.402344 7.710938 5.871094 2.457031 8.84375 5.992188 17.351562 10.527344 25.328125 1.777344 3.125 1.25 7.054687-1.285156 9.601562l-20.050782 20.101563 33.90625 33.90625 20.070313-20.074219c2.546875-2.539063 6.472656-3.070313 9.601562-1.292969 7.972657 4.546875 16.476563 8.09375 25.320313 10.558594 3.460937.949219 5.863281 4.089844 5.878906 7.679688v28.320312h48v-28.320312c0-3.601563 2.40625-6.757813 5.878906-7.710938 8.839844-2.457031 17.34375-5.992188 25.320313-10.527344 3.128906-1.777344 7.054687-1.246094 9.601562 1.292969l20.101563 20.042969 33.90625-33.90625-20.082032-20.070313c-2.535156-2.546875-3.0625-6.476562-1.285156-9.601562 4.546875-7.976563 8.09375-16.484375 10.558594-25.328125.953125-3.457032 4.09375-5.855469 7.679688-5.871094h28.320312zm-144 96c-6.050781-.011719-12.078125-.761719-17.945312-2.238281h-.054688c-29.613281-7.648438-51.164062-33.167969-53.742188-63.640625-.167968-2.03125-.257812-4.066406-.257812-6.121094-.015625-32.847656 22.195312-61.539062 54-69.753906 5.886719-1.480469 11.929688-2.234375 18-2.246094 39.765625 0 72 32.234375 72 72s-32.234375 72-72 72zm0 0"/><path d="m271.871094 178.199219c-1.917969 1.332031-3.753906 2.785156-5.496094 4.34375-.757812.6875-1.4375 1.472656-2.160156 2.199219-1.269532 1.296874-2.519532 2.609374-3.664063 4-.703125.875-1.34375 1.792968-2 2.707031-1.007812 1.40625-1.957031 2.855469-2.839843 4.359375-.566407.976562-1.109376 1.976562-1.597657 2.992187-.800781 1.597657-1.496093 3.199219-2.136719 4.855469-.402343 1.015625-.800781 2.03125-1.152343 3.078125-.585938 1.859375-1.070313 3.746094-1.449219 5.65625-.199219.929687-.464844 1.832031-.613281 2.777344-.484375 2.917969-.742188 5.871093-.761719 8.832031.011719 2.949219.261719 5.890625.742188 8.800781.144531.933594.410156 1.839844.601562 2.757813.386719 1.917968.871094 3.816406 1.457031 5.679687.335938 1.042969.742188 2.042969 1.144531 3.058594.648438 1.664063 1.351563 3.304687 2.160157 4.894531.503906 1 1.03125 1.976563 1.597656 2.9375.898437 1.535156 1.871094 3.015625 2.90625 4.457032.628906.871093 1.246094 1.757812 1.917969 2.597656 1.199218 1.472656 2.503906 2.855468 3.847656 4.207031.65625.664063 1.273438 1.378906 1.96875 2.007813 1.953125 1.78125 4.027344 3.417968 6.207031 4.90625.175781.121093.328125.261718.503907.382812 2.222656 1.441406 4.546874 2.722656 6.953124 3.832031v-101.070312c-2.386718 1.105469-4.691406 2.375-6.894531 3.808593-.441406.285157-.816406.644532-1.242187.941407zm0 0"/><path d="m280 384h-8c-4.417969 0-8-3.582031-8-8v-30.398438c-6.066406-2.011718-11.972656-4.476562-17.671875-7.371093l-21.527344 21.511719c-3.125 3.121093-8.183593 3.121093-11.304687 0l-45.199219-45.199219c-3.117187-3.121094-3.117187-8.179688 0-11.304688l21.496094-21.558593c-2.902344-5.699219-5.371094-11.609376-7.394531-17.679688h-30.398438c-4.417969 0-8-3.582031-8-8v-64c0-4.417969 3.582031-8 8-8h30.398438c2.015624-6.066406 4.476562-11.972656 7.371093-17.671875l-21.511719-21.527344c-3.121093-3.125-3.121093-8.183593 0-11.304687l45.199219-45.199219c3.121094-3.117187 8.179688-3.117187 11.304688 0l21.597656 21.496094c5.6875-2.902344 11.585937-5.371094 17.640625-7.394531v-30.398438c0-4.417969 3.582031-8 8-8h8v-16h-280v352h280zm0 0"/><path d="m280 416h-280v8c0 13.253906 10.746094 24 24 24h232c13.253906 0 24-10.746094 24-24zm0 0"/><path d="m0 32h280v-8c0-13.253906-10.746094-24-24-24h-232c-13.253906 0-24 10.746094-24 24zm0 0"/></svg>